<?xml version="1.0" encoding="UTF-8" standalone="no"?>
<svg
   width="28.872959"
   height="29.880878"
   viewBox="0 0 28.872959 29.880878"
   version="1.1"
   id="svg1"
   xmlns:xlink="http://www.w3.org/1999/xlink"
   xmlns="http://www.w3.org/2000/svg"
   xmlns:svg="http://www.w3.org/2000/svg">
  <!-- Generator: Sketch 40.1 (33804) - http://www.bohemiancoding.com/sketch -->
  <title
     id="title1">logo-midtrans-color copy 2</title>
  <desc
     id="desc1">Created with Sketch.</desc>
  <defs
     id="defs1">
    <polygon
       id="path-1"
       points="0,18.352022 4.0157216,18.352022 4.0157216,0.022022059 2.5818263e-20,0.022022059 0,0.022022059 " />
    <clipPath
       clipPathUnits="userSpaceOnUse"
       id="clipPath1">
      <rect
         style="fill:#6b7076;stroke-width:7.85008"
         id="rect2"
         width="31.72447"
         height="32.080925"
         x="-2.8516378"
         y="-0.71290946" />
    </clipPath>
  </defs>
  <g
     id="Midtrans"
     stroke="none"
     stroke-width="1"
     fill="none"
     fill-rule="evenodd"
     clip-path="url(#clipPath1)"
     transform="translate(1.2676294e-4)">
    <g
       id="1-Overview-alt"
       transform="translate(-135,-15)">
      <g
         id="header">
        <g
           id="logo-midtrans-color-copy-2"
           transform="translate(135,15)">
          <g
             id="Group-3"
             transform="translate(0,5.763228)">
            <mask
               id="mask-2"
               fill="#ffffff">
              <use
                 xlink:href="#path-1"
                 id="use1" />
            </mask>
            <g
               id="Clip-2" />
          </g>
          <path
             d="m 2.0077973,24.11525 c -1.10873998,0 -2.00792430344,-0.885 -2.00792430344,-1.97625 V 7.7615 c 0,-1.09125 0.89918432344,-1.97625 2.00792430344,-1.97625 1.10874,0 2.0079243,0.885 2.0079243,1.97625 V 22.139 c 0,1.09125 -0.8991843,1.97625 -2.0079243,1.97625"
             id="Fill-1"
             fill="#89c7e8" />
          <path
             d="m 26.102127,24.11525 c -1.10874,0 -2.007924,-0.885 -2.007924,-1.97625 V 7.77275 c 0,-1.09125 0.899184,-1.97625 2.007924,-1.97625 1.10874,0 2.007924,0.885 2.007924,1.97625 V 22.139 c 0,1.09125 -0.899184,1.97625 -2.007924,1.97625"
             id="Fill-4"
             fill="#0baddc" />
          <path
             d="m 14.054962,29.880875 c -1.10874,0 -2.007924,-0.885 -2.007924,-1.97625 v -25.8975 c 0,-1.09125 0.899184,-1.97625 2.007924,-1.97625 1.10874,0 2.007924,0.885 2.007924,1.97625 v 25.8975 c 0,1.09125 -0.899184,1.97625 -2.007924,1.97625"
             id="Fill-6"
             fill="#307fc2" />
          <path
             d="m 171.0199,21.84125 c -0.2413,-0.17 -0.48261,-0.51 -0.48261,-0.9525 0,-0.61125 0.51818,-1.12125 1.17351,-1.12125 0.24131,0 0.48389,0.0675 0.65661,0.205 1.82885,1.2225 3.72882,1.86875 5.66181,1.86875 2.14128,0 3.6958,-1.0875 3.6958,-2.7875 v -0.0675 c 0,-1.7675 -2.10571,-2.4475 -4.45401,-3.0925 -2.79788,-0.7825 -5.90566,-1.73375 -5.90566,-4.96125 v -0.06875 c 0,-3.025 2.55531,-5.03125 6.07712,-5.03125 1.89997,0 3.97267,0.57875 5.69737,1.49625 0.34672,0.205 0.65661,0.5775 0.65661,1.0875 0,0.6125 -0.51817,1.1225 -1.17351,1.1225 -0.24258,0 -0.44959,-0.06875 -0.58676,-0.13625 -1.52023,-0.85 -3.14206,-1.36 -4.66229,-1.36 -2.10699,0 -3.45323,1.0875 -3.45323,2.55 V 10.66 c 0,1.665 2.20986,2.31125 4.59245,3.02375 2.76232,0.81625 5.73166,1.87 5.73166,5.03125 v 0.06625 c 0,3.3325 -2.79534,5.26875 -6.35271,5.26875 -2.34829,0 -4.93789,-0.85 -6.87216,-2.20875"
             id="Fill-12"
             fill="#ffffff" />
          <path
             d="m 166.70331,13.1615 c 0,-3.95375 -3.52307,-7.39625 -7.77007,-7.39625 -4.29652,0 -7.78023,3.42875 -7.78023,7.6575 V 22.479 c 0,0.78125 0.61343,1.38375 1.40593,1.38375 0.79504,0 1.37164,-0.6025 1.37164,-1.38375 l -0.001,-4.0675 v -5.25125 c 0,-2.71625 2.2378,-4.91875 4.99758,-4.91875 2.76106,0 4.99886,2.2025 4.99886,4.91875 v 5.26 4.05875 c 0,0.78125 0.61215,1.38375 1.37036,1.38375 0.79378,0 1.4072,-0.6025 1.4072,-1.38375 0,0 0.0254,-8.46625 0,-9.3175"
             id="Fill-14"
             fill="#ffffff" />
          <path
             d="m 137.75034,21.7345 c -2.41815,0 -4.32447,-1.015 -4.32447,-3.22375 V 18.442 c 0,-2.20875 1.86441,-3.63625 5.21349,-3.63625 2.17557,0 5.24651,0.68625 5.24778,0.7475 v 0.0038 c 0,3.22125 -3.05697,6.1775 -6.1368,6.1775 z m 8.65782,-8.76375 h -0.005 C 146.16051,9.1995 142.74919,5.9995 138.65587,5.9995 h -1.19129 c -0.69471,0 -1.25733,0.55375 -1.25733,1.2375 0,0.68375 0.56262,1.23875 1.25733,1.23875 h 1.18494 c 2.76106,0 5.2046,2.2025 5.2046,4.91875 v 0.22125 c -1.58881,-0.44125 -3.21191,-0.7475 -5.49035,-0.7475 -4.52387,0 -7.63164,1.97125 -7.63164,5.67625 v 0.0675 c 0,3.60375 3.22716,5.4725 6.54195,5.4725 3.00998,0 5.38494,-1.51875 6.61306,-3.475 v 2.01375 c 0,0.685 0.56517,1.24 1.26115,1.24 0.69598,0 1.26114,-0.555 1.26114,-1.24 z"
             id="Fill-16"
             fill="#ffffff" />
          <path
             d="m 130.2297,7.234 c 0,-0.68375 -0.56389,-1.23875 -1.2586,-1.23875 h -0.85854 v 0 h -0.001 c -4.29653,0 -7.78023,3.42875 -7.78023,7.65625 v 8.8275 c 0,0.78125 0.61342,1.38375 1.40592,1.38375 0.79505,0 1.37164,-0.6025 1.37164,-1.38375 l -0.001,-4.0675 v -5.02125 c 0,-2.71625 2.2378,-4.91875 4.99759,-4.91875 h 0.008 v 0.00125 h 0.85854 c 0.69471,0 1.2586,-0.555 1.2586,-1.23875"
             id="Fill-18"
             fill="#ffffff" />
          <path
             d="m 115.91781,7.170875 v 0 c 0,-0.63875 -0.52579,-1.15625 -1.17478,-1.15625 h -4.66102 v -4.6125 c 0,-0.725 -0.60073,-1.39125 -1.33608,-1.39625 -0.76583,-0.00625 -1.32338,0.6075 -1.32338,1.325 v 17.72375 c 0,3.5675 2.1743,4.96125 5.04077,4.96125 1.03635,0 1.86568,-0.17 2.62516,-0.475 0.44832,-0.17 0.75948,-0.54375 0.75948,-1.02 0,-0.6125 -0.51817,-1.12125 -1.13922,-1.12125 -0.20701,0 -0.6909,0.2375 -1.6231,0.2375 -1.79583,0 -3.00363,-0.7825 -3.00363,-2.9225 v -10.3875 h 4.66102 c 0.64899,0 1.17478,-0.5175 1.17478,-1.15625"
             id="Fill-20"
             fill="#ffffff" />
          <path
             d="m 101.92839,22.555 c 0,0.7475 -0.58676,1.325 -1.31195,1.325 -0.759481,0 -1.347507,-0.5775 -1.347507,-1.325 V 20.67 c -1.450379,2.1075 -3.556096,3.41375 -6.836595,3.41375 -4.281285,0 -8.52955,-3.33 -8.52955,-9.1075 V 14.9075 c 0,-5.7425 4.248265,-9.14125 8.52955,-9.14125 3.31479,0 5.456068,1.2725 6.836595,3.24375 V 1.32625 C 99.268933,0.57875 99.821398,0 100.58215,0 c 0.75948,0 1.34624,0.57875 1.34624,1.32625 z M 86.632092,14.87375 v 0.06875 c 0,4.14625 2.933779,6.7975 6.28413,6.7975 3.314789,0 6.456854,-2.75375 6.456854,-6.7975 v -0.06875 c 0,-4.04375 -3.142065,-6.7625 -6.456854,-6.7625 -3.454494,0 -6.28413,2.515 -6.28413,6.7625 z"
             id="Fill-10"
             fill="#ffffff" />
          <path
             d="m 76.794914,7.0785 c 0,-0.71375 0.586755,-1.325 1.311945,-1.325 0.75948,0 1.347506,0.5775 1.347506,1.325 v 15.47625 c 0,0.74875 -0.553735,1.325 -1.313215,1.325 -0.759481,0 -1.346236,-0.57625 -1.346236,-1.325 z"
             id="Fill-8"
             fill="#ffffff" />
          <path
             d="m 63.84069,5.753625 c -2.545149,0 -4.79057,1.26 -6.132996,3.1775 -1.334806,-1.90875 -3.553556,-3.165 -6.089815,-3.165 -4.111101,0 -7.444941,3.28125 -7.444941,7.3275 v 9.46125 c 0,0.7475 0.585486,1.325 1.346236,1.325 0.759481,0 1.313216,-0.5775 1.313216,-1.325 l -0.0025,-9.71125 c 0,-2.60125 2.141278,-4.7075 4.784219,-4.7075 2.640402,0 4.78295,2.10625 4.78295,4.7075 l -0.0013,8.6275 v 0 0.0038 c 0,0.7225 0.594376,1.30875 1.329726,1.30875 0.73408,0 1.329726,-0.58625 1.329726,-1.30875 l -0.0038,-8.64375 c 0,-2.6 2.142548,-4.7075 4.78422,-4.7075 2.641671,0 4.782949,2.1075 4.782949,4.7075 v 9.71125 c 0,0.74875 0.586756,1.325 1.311946,1.325 0.75948,0 1.347506,-0.57625 1.347506,-1.325 l 0.0076,-9.44875 c 0,-4.17375 -3.504024,-7.34 -7.444941,-7.34"
             id="Fill-22"
             fill="#ffffff" />
        </g>
      </g>
    </g>
  </g>
</svg>
